<svg width="216" height="156" viewBox="0 0 216 156" fill="none" xmlns="http://www.w3.org/2000/svg">
<path d="M92 155.961H132.5L98.7866 98.4612C126.083 79.0477 128.154 54.4142 119.984 34.9612C115.453 24.175 107.774 14.9815 99.5 9.15368C93.4874 4.91881 87.1608 2.46121 81.5 2.46121H42.5H0L18.2801 32.9612H60.3827C91 31.4612 97.5 61.4612 75 74.9612H43.4528L92 155.961Z" fill="#3DCD58"/>
<path d="M198 34.9612C170.8 -11.8388 121 -1.74381 99.5 9.15368C107.774 14.9815 115.453 24.175 119.984 34.9612C148.771 23.3612 165.989 42.4612 171 53.4612L198 34.9612Z" fill="#1E1E1E"/>
<path d="M171 104.461L198 120.961C197.5 129.295 188.3 147.961 155.5 155.961L138.5 126.461C147.5 124.961 166.6 118.461 171 104.461Z" fill="#1E1E1E"/>
<path d="M158.968 82L168.137 88.5C168.364 87.2176 168.915 86.1067 169.685 85.1883L160.599 79C160.166 80.1027 159.616 81.1022 158.968 82Z" fill="#1E1E1E"/>
<path d="M199.089 65.5C198.922 65.0291 198.785 64.5292 198.685 64C198.551 63.2992 198.503 62.6319 198.529 62L161.079 68C161.369 69.0844 161.562 70.2508 161.644 71.5L199.089 65.5Z" fill="#1E1E1E"/>
<path d="M129.185 72.5C129.185 88.8502 151.153 92.8364 158.968 82C159.616 81.1022 160.166 80.1027 160.599 79C161.332 77.1317 161.727 74.9673 161.685 72.5C161.679 72.1609 161.665 71.8276 161.644 71.5C161.562 70.2508 161.369 69.0844 161.079 68C156.622 51.3343 129.185 54.018 129.185 72.5Z" fill="#3DCD58"/>
<path d="M168.185 91.5C170.185 102 186.065 101 184.685 89.5C183.646 80.8461 173.695 80.4032 169.685 85.1883C168.915 86.1067 168.364 87.2176 168.137 88.5C167.976 89.4152 167.979 90.4178 168.185 91.5Z" fill="#3DCD58"/>
<path d="M198.685 64C198.785 64.5292 198.922 65.0291 199.089 65.5C202.241 74.3725 216.495 72.9204 215.185 62C213.897 51.2675 198.9 53.1641 198.529 62C198.503 62.6319 198.551 63.2992 198.685 64Z" fill="#3DCD58"/>
<path d="M0 155.961H42.5V104.461H0V155.961Z" fill="#3DCD58"/>
</svg>
